<?xml version="1.0" standalone="no"?>
<!DOCTYPE svg PUBLIC "-//W3C//DTD SVG 1.1//EN" "http://www.w3.org/Graphics/SVG/1.1/DTD/svg11.dtd" >
<svg>
<metadata>
Created by FontForge 20110222 at Sat Feb 14 21:09:10 2015
 By deploy user
Copyright 2014 Adobe Systems Incorporated. All rights reserved.
</metadata>
<defs>
<font id="Axis" horiz-adv-x="500" >
  <font-face 
    font-family="Axis"
    font-weight="12"
    font-style="italic"
    font-stretch="normal"
    units-per-em="1000"
    panose-1="0 0 0 0 0 0 0 0 0 0"
    ascent="750"
    descent="-250"
    x-height="515"
    cap-height="650"
    bbox="-71 -324 1094 925"
    underline-thickness="50"
    underline-position="-50"
    slope="13"
    unicode-range="U+0020-2212"
  />
<missing-glyph 
 />
    <glyph glyph-name="f_i" unicode="fi" horiz-adv-x="626" 
d="M296 515l257 -1v-514h-155v394h-101v-394h-1h-155h-1v394h-90v121h91v40q0 69 26 112.5t71 58.5t100 11.5t119 -24.5l-9 -112q-6 1 -16.5 3t-36.5 3t-46 -2t-36.5 -15.5t-16.5 -34.5v-40z" />
    <glyph glyph-name="ffi" unicode="ffi" horiz-adv-x="936" 
d="M593 515l256 -1v-514h-155v394h-101v-394h-156v394h-148v-394h-156v394h-91v121h91v40q0 74 43.5 119t114 51t159.5 -21q-54 -42 -66 -102q-95 8 -95 -47v-40h148v40q0 69 26 112.5t71 58.5t100 11.5t119 -24.5l-8 -111q-6 1 -16.5 3t-36.5 3t-46 -2.5t-36.5 -16
t-16.5 -34.5v-40z" />
    <glyph glyph-name=".notdef" 
 />
    <glyph glyph-name=".null" horiz-adv-x="0" 
 />
    <glyph glyph-name="nonmarkingreturn" horiz-adv-x="333" 
 />
    <glyph glyph-name="space" unicode=" " horiz-adv-x="421" 
 />
    <glyph glyph-name="exclam" unicode="!" horiz-adv-x="324" 
d="M75 723h153v-503h-153v503zM222 132q30 -27 30 -66t-30 -64q-29 -27 -72 -27q-40 0 -70 27q-31 25 -31 64t31 66q30 25 70 25q44 0 72 -25z" />
    <glyph glyph-name="quotedbl" unicode="&#x22;" horiz-adv-x="397" 
d="M65 707h108v-270h-108v270zM224 707h109v-270h-109v270z" />
    <glyph glyph-name="numbersign" unicode="#" horiz-adv-x="828" 
d="M762 444h-112v-182h112v-150h-112v-112h-150v112h-182v-112h-150v112h-113v150h113v182h-113v150h113v113h150v-113h182v113h150v-113h112v-150zM500 262v182h-182v-182h182z" />
    <glyph glyph-name="dollar" unicode="$" horiz-adv-x="517" 
d="M503 236q0 -57 -50 -103.5t-126 -62.5v-70h-131v70q-83 17 -130 70t-47 106h142q0 -3 1 -8t7.5 -18t16 -22.5t30 -17.5t47.5 -8q39 0 68.5 19.5t29.5 44.5q0 20 -12.5 34.5t-35 23t-40.5 12.5t-43.5 7.5t-29.5 4.5q-24 5 -43 10t-45 16.5t-42.5 26t-29 38.5t-12.5 53
q0 59 47 106t121 63v70h131v-70q75 -14 116.5 -55t41.5 -90h-135q0 8 -8 17.5t-30.5 17.5t-54.5 8q-36 0 -61.5 -19.5t-25.5 -47.5q0 -12 8.5 -21t23.5 -14t28.5 -7.5t31 -4.5t23.5 -3q98 -17 139 -39q79 -44 79 -137z" />
    <glyph glyph-name="percent" unicode="%" horiz-adv-x="834" 
d="M453 704h148l-256 -705h-144zM182 730q56 0 97.5 -37t46.5 -93q8 -59 -30 -106q-37 -46 -99 -54q-5 -1 -15 -1q-56 0 -97.5 37t-46.5 92q-8 62 31 107q35 47 98 55h15zM182 522q5 0 7 1q24 1 42 23q16 19 13 45q-2 24 -20 40t-42 16h-7q-24 -1 -42 -23q-16 -20 -14 -47
q3 -23 21 -39t42 -16zM771 132q5 -62 -33 -107q-36 -46 -96 -52q-6 -1 -17 -1q-56 0 -96.5 37t-47.5 93q-6 59 31 107q41 48 98 52q12 2 15 2q56 0 97.5 -37.5t48.5 -93.5zM625 54q5 0 7 1q27 3 42 23q17 20 14 47q-3 24 -21 39.5t-42 15.5h-6q-29 -5 -42 -24
q-17 -22 -13 -45q2 -24 20 -40.5t41 -16.5z" />
    <glyph glyph-name="ampersand" unicode="&#x26;" horiz-adv-x="814" 
d="M777 89l-99 -87l-96 81q-43 -51 -109.5 -77t-140.5 -19h-3q-114 12 -184 92q-70 78 -56 181q13 96 100 158q-52 60 -43 136q10 76 78.5 124t155.5 40q87 -9 142 -69q55 -62 44 -137q-6 -46 -35.5 -84t-74.5 -59l77 -67l55 120l129 -49l-76 -166zM357 588q-25 0 -43 -16
t-18 -38t18 -38.5t43 -16.5t43.5 16t18.5 39q0 22 -18 38t-44 16zM348 116q39 -4 74 13t53 48l-172 152q-59 -27 -68 -86q-6 -46 26 -84t85 -43h2z" />
    <glyph glyph-name="quotesingle" unicode="'" horiz-adv-x="219" 
d="M56 707h109v-270h-109v270z" />
    <glyph glyph-name="parenleft" unicode="(" horiz-adv-x="342" 
d="M275 -25l-118 -79q-60 82 -95.5 193.5t-35.5 218.5q0 205 131 413l118 -80q0 -1 -13.5 -24.5t-22.5 -41t-23.5 -51.5t-23.5 -64.5t-16 -71.5t-7 -80q0 -58 16 -118.5t29 -89.5t51 -104q6 -14 10 -21z" />
    <glyph glyph-name="parenright" unicode=")" horiz-adv-x="338" 
d="M27 643l118 79q60 -84 95.5 -195.5t35.5 -216.5q0 -205 -131 -413l-118 80q0 1 13.5 24.5t22.5 41t23.5 51.5t23.5 64.5t16 71.5t7 80q0 58 -16 118.5t-29 89.5t-51 104q-6 14 -10 21z" />
    <glyph glyph-name="asterisk" unicode="*" horiz-adv-x="483" 
d="M439 569v-69h-110l78 -78l-47 -47l-79 78v-111h-68v111l-78 -78l-48 47l79 78h-111v69h111l-79 78l48 47l78 -78v111h68v-111l79 78l47 -47l-78 -78h110z" />
    <glyph glyph-name="plus" unicode="+" horiz-adv-x="631" 
d="M585 408v-129h-203v-203h-129v203h-203v129h203v203h129v-203h203z" />
    <glyph glyph-name="comma" unicode="," horiz-adv-x="298" 
d="M269 69q0 -39 -21 -66l-118 -174h-110l49 158q-34 34 -34 82q0 49 34 82.5t83 33.5q48 0 82.5 -34t34.5 -82z" />
    <glyph glyph-name="hyphen" unicode="-" horiz-adv-x="487" 
d="M410 350v-140h-370v140h370z" />
    <glyph glyph-name="period" unicode="." horiz-adv-x="344" 
d="M264 153q35 -33 35 -77q0 -43 -35 -75q-34 -31 -83 -31t-83 31q-36 30 -36 75q0 46 36 77q35 30 83 30t83 -30z" />
    <glyph glyph-name="slash" unicode="/" horiz-adv-x="412" 
d="M219 703h140l-147 -703h-142z" />
    <glyph glyph-name="zero" unicode="0" horiz-adv-x="677" 
d="M330 722q126 0 215 -108.5t89 -262.5q0 -153 -89 -261.5t-215 -108.5t-214.5 108.5t-88.5 261.5q0 154 88.5 262.5t214.5 108.5zM330 128q66 0 112.5 65t46.5 157t-46.5 156.5t-112.5 64.5q-65 0 -111.5 -65t-46.5 -156q0 -92 46.5 -157t111.5 -65z" />
    <glyph glyph-name="one" unicode="1" horiz-adv-x="445" 
d="M213 707h168v-706h-168v456h-160v113q3 0 8.5 1t21.5 5.5t30.5 10t32.5 16.5t31.5 24.5t23.5 34.5t12 45z" />
    <glyph glyph-name="two" unicode="2" horiz-adv-x="611" 
d="M346 212q-18 -10 -46.5 -23t-45.5 -22.5t-28 -20.5h341v-146h-507v138q0 29 14.5 54.5t43.5 46.5t53 35t63.5 32.5t53.5 26.5q76 41 108 68t32 59q0 16 -2.5 30t-12.5 36.5t-35.5 36t-64.5 13.5q-116 0 -116 -116h-137q0 105 65 179.5t188 74.5q119 0 186.5 -75.5
t67.5 -178.5q0 -28 -8 -53.5t-18 -44.5t-32 -40t-35 -32.5t-43.5 -30t-41.5 -24.5t-43 -23z" />
    <glyph glyph-name="three" unicode="3" horiz-adv-x="626" 
d="M376 435q95 0 152.5 -66t57.5 -170q0 -94 -76 -159t-184 -65v0q-108 0 -184 65t-76 159h142q0 -42 34 -67.5t84 -25.5t84 25.5t34 67.5q0 72 -32 97t-86 25h-147v114l184 147h-281v125h477v-125z" />
    <glyph glyph-name="four" unicode="4" horiz-adv-x="734" 
d="M686 313v-130h-102v-183h-168v183h-349v130l347 394h170v-394h102zM257 313h159v199z" />
    <glyph glyph-name="five" unicode="5" horiz-adv-x="653" 
d="M343 470q128 0 196 -61.5t68 -179.5q0 -96 -74 -170q-78 -80 -190 -80t-192 64q-81 67 -81 169h143q0 -41 39 -69.5t91 -28.5q48 0 84 37t36 78q0 53 -25 77.5t-95 24.5h-254v376h450v-131h-317v-106h121z" />
    <glyph glyph-name="six" unicode="6" horiz-adv-x="608" 
d="M315 464q123 0 191 -71t68 -169q0 -101 -81 -172.5t-196 -71.5t-196 71.5t-81 172.5q0 47 72 171l178 312h168zM297 110q53 0 91.5 33.5t38.5 80.5t-38.5 80.5t-91.5 33.5q-67 0 -98.5 -36t-31.5 -78q0 -47 38 -80.5t92 -33.5z" />
    <glyph glyph-name="seven" unicode="7" horiz-adv-x="616" 
d="M54 707h506v-134l-241 -573h-193l254 568h-326v139z" />
    <glyph glyph-name="eight" unicode="8" horiz-adv-x="572" 
d="M462 373q89 -69 89 -168q0 -93 -78 -159t-188 -66q-111 0 -189 66t-78 159q0 101 90 168q-59 59 -59 138q0 88 69 149.5t167 61.5t167 -61.5t69 -149.5q0 -77 -59 -138zM285 592q-43 0 -75 -24t-32 -57q0 -32 32 -56t75 -24t74 24t31 56q0 34 -31 57.5t-74 23.5zM285 111
q56 0 96 27.5t40 66.5t-40 66.5t-96 27.5t-96.5 -27.5t-40.5 -66.5t40.5 -66.5t96.5 -27.5z" />
    <glyph glyph-name="nine" unicode="9" horiz-adv-x="594" 
d="M542 405q-21 -46 -75 -147t-97 -180l-44 -78h-190l131 245q-103 8 -174 77.5t-71 164.5q0 100 78.5 171t189.5 71t189.5 -71t78.5 -171q0 -50 -16 -82zM180 487q0 -41 32 -70.5t78 -29.5t78 29.5t32 70.5t-32 70t-78 29t-78 -29t-32 -70z" />
    <glyph glyph-name="colon" unicode=":" horiz-adv-x="283" 
d="M244 513q0 -44 -31.5 -75.5t-75.5 -31.5t-75.5 31.5t-31.5 75.5t31.5 75t75.5 31t75.5 -31t31.5 -75zM244 174q0 -44 -31.5 -75.5t-75.5 -31.5t-75.5 31.5t-31.5 75.5t31.5 75t75.5 31t75.5 -31t31.5 -75z" />
    <glyph glyph-name="semicolon" unicode=";" horiz-adv-x="323" 
d="M264 50q0 -36 -20 -64l-115 -168h-106l47 153q-32 32 -32 79t33 80t80 33t80 -33t33 -80zM257 371q0 -44 -31.5 -75.5t-75.5 -31.5t-75.5 31.5t-31.5 75.5t31.5 75t75.5 31t75.5 -31t31.5 -75z" />
    <glyph glyph-name="less" unicode="&#x3c;" horiz-adv-x="439" 
d="M30 383l274 274l110 -111l-163 -163l163 -164l-110 -110z" />
    <glyph glyph-name="equal" unicode="=" 
d="M458 555v-140h-418v140h418zM458 282v-139h-418v139h418z" />
    <glyph glyph-name="greater" unicode="&#x3e;" horiz-adv-x="466" 
d="M414 383l-274 -274l-110 111l163 163l-163 164l110 110z" />
    <glyph glyph-name="question" unicode="?" horiz-adv-x="518" 
d="M472 619q17 -39 17 -83q0 -27 -10.5 -51t-33.5 -46.5t-36.5 -33.5t-42.5 -32q-31 -23 -37 -28q-10 -12 -14 -33q-5 -26 -5 -86v-9h-156v9q0 101 11 134q13 43 61 69q39 19 69 43q40 33 40 64q0 30 -15.5 47.5t-30 21.5t-30.5 4q-43 0 -63 -23.5t-20 -49.5v-8h-145v8
q0 41 14 73q13 36 42 65q63 66 172 66q49 0 93 -14q45 -18 73 -42q29 -26 47 -65zM296 127q30 -27 30 -64q0 -36 -30 -63q-26 -25 -69 -25q-44 0 -70 25q-29 26 -29 63q0 38 29 64q28 25 70 25q41 0 69 -25z" />
    <glyph glyph-name="at" unicode="@" horiz-adv-x="802" 
d="M664 609q107 -110 107 -260q0 -108 -54 -189.5t-115 -81.5q-45 2 -70 20q-45 32 -50 88l-1 11q-44 -28 -87 -34q-7 -1 -21 -1q-71 0 -124 47.5t-61 119.5q-8 77 40 137t125 68q7 1 21 1q54 0 99 -27v20h100v-328q0 -13 8.5 -21.5t20.5 -8.5q4 0 7 1t6.5 3t6 3.5t6.5 6
t5.5 6.5t6.5 8t7 8q8 14 15 29q0 1 3 11l1 1v1l1 2l3 9l1 2q0 1 1 2l1 3q1 4 2 6v2q1 1 1 2q0 4 2 10l1 2v2q1 3 1 9l1 2v4q0 1 0.5 3t0.5 4v2l1 2v3q1 2 1 7v2v2v4v6v3v2v4q0 126 -93 211q-79 74 -192 74q-135 0 -221 -103q-65 -79 -65 -182v-14l1 -1v-1v-13v-2q2 -6 2 -12
l1 -1v-2q0 -2 0.5 -6t0.5 -5l1 -2q0 -3 2 -11l1 -1v-1q0 -2 3 -11l1 -3q2 -8 4 -11l1 -2l3 -12l1 -1l1 -1q0 -1 1.5 -4.5t2.5 -5.5l1 -1v-1q48 -97 144 -138q2 -1 5.5 -2t5.5 -2l1 -1h3q7 -3 9 -4h2q0 -1 2 -1l9 -3l2 -1h2l9 -3h1h2q1 0 2 -1q6 0 9 -1h1h2h2q1 0 4 -0.5
t4 -1.5h3h1q1 -1 3 -1h8h2h3l2 -1h12h1h2h14h1v1h13h3q6 2 12 2v1h2q2 0 6 0.5t6 0.5h1l12 3l1 1h1h2l5 1l3 -4l51 -55l9 -10l-11 -3q-64 -24 -131 -24q-154 0 -263 109t-109 263q0 111 60 202q53 80 135.5 125t176.5 45q150 0 260 -107h2l1 -2l2 -2v-1zM373 264h9
q35 3 58 31q24 28 19 63q-4 32 -28.5 54t-56.5 22h-9q-36 -4 -58.5 -31.5t-18.5 -62.5q4 -33 28.5 -54.5t56.5 -21.5z" />
    <glyph glyph-name="A" unicode="A" horiz-adv-x="856" 
d="M631 0l-44 89h-315l-44 -89h-176l323 650h118l311 -650h-173zM337 216h189l-97 209z" />
    <glyph glyph-name="B" unicode="B" horiz-adv-x="685" 
d="M591 346q53 -62 53 -138q0 -93 -61 -150.5t-140 -57.5h-367v650h348q76 0 135 -52.5t59 -141.5q0 -59 -27 -110zM232 523v-127h183q23 1 40 19t17 44q0 27 -17 45.5t-40 18.5h-183zM437 131q26 0 45 20t19 49q0 30 -19 49.5t-45 19.5h-205v-138h205z" />
    <glyph glyph-name="C" unicode="C" horiz-adv-x="714" 
d="M556 198l118 -76q-47 -65 -119.5 -102t-156.5 -37q-142 0 -242 100t-100 242t100 242.5t242 100.5q83 0 156 -37.5t120 -102.5l-118 -76q-73 66 -158 66q-79 0 -135.5 -56.5t-56.5 -136.5q0 -79 56 -135.5t136 -56.5q47 0 82 15t76 50z" />
    <glyph glyph-name="D" unicode="D" horiz-adv-x="747" 
d="M400 650q146 0 235.5 -93t89.5 -231q0 -135 -95 -230.5t-230 -95.5h-308v650h308zM415 156q63 2 108.5 50.5t45.5 119.5t-45.5 119.5t-108.5 48.5h-167v-338h167z" />
    <glyph glyph-name="E" unicode="E" horiz-adv-x="585" 
d="M558 510h-333v-116h263v-139h-263v-116h333v-139h-489v650h489v-140z" />
    <glyph glyph-name="F" unicode="F" horiz-adv-x="601" 
d="M577 510h-334v-148h263v-140h-263v-222h-156v510v140h490v-140z" />
    <glyph glyph-name="G" unicode="G" horiz-adv-x="738" 
d="M699 386v-264h-1q-47 -64 -119.5 -101t-155.5 -37q-142 0 -242.5 100t-100.5 242t100.5 242.5t242.5 100.5q170 0 268 -132l-119 -76q-63 58 -149 58q-79 0 -136 -56.5t-57 -136.5q0 -79 56.5 -135.5t136.5 -56.5q82 0 139 59v68h-197v125h334z" />
    <glyph glyph-name="H" unicode="H" horiz-adv-x="726" 
d="M525 650h156v-650h-156v238h-284v-238h-156v650h156v-272h284v272z" />
    <glyph glyph-name="I" unicode="I" horiz-adv-x="281" 
d="M65 650h156v-650h-156v650z" />
    <glyph glyph-name="J" unicode="J" horiz-adv-x="585" 
d="M388 650h156v-370q0 -140 -65.5 -218.5t-196.5 -78.5q-109 0 -177.5 79t-68.5 203h140q0 -59 31 -100.5t75 -41.5q46 0 76 42t30 116v369z" />
    <glyph glyph-name="K" unicode="K" horiz-adv-x="801" 
d="M523 0l-196 251l-66 -68v-183h-156v650h156v-261l268 261h198l-292 -284l309 -366h-221z" />
    <glyph glyph-name="L" unicode="L" horiz-adv-x="708" 
d="M240 156h407v-156h-563v650h156v-494z" />
    <glyph glyph-name="M" unicode="M" horiz-adv-x="833" 
d="M618 650h156v-650h-156v332l-153 -332h-68l-150 329v-329h-157v650h157v-3l184 -365l187 368v-1v1z" />
    <glyph glyph-name="N" unicode="N" horiz-adv-x="828" 
d="M613 650h156v-650h-156l-324 389v-389h-156v650h156v0l324 -405v405z" />
    <glyph glyph-name="O" unicode="O" horiz-adv-x="806" 
d="M421 667q142 0 242 -100.5t100 -242.5t-100 -242t-242 -100t-242.5 100t-100.5 242t100.5 242.5t242.5 100.5zM421 132q79 0 135.5 56t56.5 136t-56.5 136.5t-135.5 56.5q-80 0 -136.5 -56.5t-56.5 -136.5t56.5 -136t136.5 -56z" />
    <glyph glyph-name="P" unicode="P" horiz-adv-x="659" 
d="M638 409v-15v-15q-6 -101 -80 -171t-176 -70h-134v-138h-159v650h316q97 0 162.5 -71t70.5 -170zM380 297q40 0 68.5 28.5t28.5 68.5t-27.5 68t-67.5 29h-134v-194h132z" />
    <glyph glyph-name="Q" unicode="Q" horiz-adv-x="915" 
d="M831 77l-109 -110l-66 66q-82 -50 -178 -50q-142 0 -242 100.5t-100 242.5q0 141 100 241.5t242 100.5t242.5 -100.5t100.5 -241.5q0 -99 -54 -185zM478 133q32 0 68 12l-77 77l110 110l77 -79q15 33 15 73q0 79 -56.5 135.5t-136.5 56.5t-136 -56t-56 -136t56 -136.5
t136 -56.5z" />
    <glyph glyph-name="R" unicode="R" horiz-adv-x="723" 
d="M673 0h-196l-107 162h-114v-162h-159v650h316q99 0 166 -74.5t67 -181.5q0 -136 -116 -198zM256 490v-185h132q41 0 69 24.5t28 64.5t-28 68t-68 28h-133z" />
    <glyph glyph-name="S" unicode="S" horiz-adv-x="703" 
d="M355 -17q-71 0 -129 21.5t-92 55t-52 70t-18 71.5h169q0 -3 1.5 -10t8.5 -21.5t19 -26.5t36.5 -21.5t56.5 -9.5q46 0 82 23.5t36 53.5q0 23 -15 40.5t-42 27.5t-49 15t-52 9.5t-36 5.5q-205 40 -205 172q0 86 80 147.5t193 61.5q129 0 201 -54t72 -126h-161
q0 10 -9.5 20.5t-36.5 20t-66 9.5q-43 0 -73.5 -23t-30.5 -56q0 -15 10 -25.5t28.5 -16.5t34 -9t37 -5t27.5 -3q106 -20 149 -39q113 -52 113 -172q0 -84 -85.5 -145t-201.5 -61z" />
    <glyph glyph-name="T" unicode="T" horiz-adv-x="725" 
d="M693 650v-140h-247v-510h-156v510h-247v140h650z" />
    <glyph glyph-name="U" unicode="U" horiz-adv-x="730" 
d="M544 650h159v-319q0 -154 -94.5 -251t-235.5 -97t-236 97t-95 251v319h159v-319q0 -78 49 -132.5t123 -54.5q73 0 122 54.5t49 132.5v319z" />
    <glyph glyph-name="V" unicode="V" horiz-adv-x="677" 
d="M515 650h178l-278 -650h-156l-279 650h178l179 -398z" />
    <glyph glyph-name="W" unicode="W" horiz-adv-x="1030" 
d="M916 650h178l-279 -650h-172l-121 361l-121 -361h-172l-279 650h178l179 -398l138 398h154l139 -398z" />
    <glyph glyph-name="X" unicode="X" horiz-adv-x="761" 
d="M727 549l-221 -224l221 -223l-119 -119l-219 222l-224 -221l-119 119l223 224l-223 220l119 119l224 -220l219 222z" />
    <glyph glyph-name="Y" unicode="Y" horiz-adv-x="749" 
d="M553 650h194l-273 -376v-274h-194v274l-274 376h194l177 -236z" />
    <glyph glyph-name="Z" unicode="Z" horiz-adv-x="697" 
d="M641 159v-159h-546v159l327 339h-327v152h546v-152v0l-340 -339h340z" />
    <glyph glyph-name="bracketleft" unicode="[" horiz-adv-x="293" 
d="M256 0h-216v707h216v-101h-85v-502h85v-104z" />
    <glyph glyph-name="backslash" unicode="\" horiz-adv-x="394" 
d="M69 707h140l150 -707h-142z" />
    <glyph glyph-name="bracketright" unicode="]" horiz-adv-x="303" 
d="M51 707h216v-708h-216v105h85v502h-85v101z" />
    <glyph glyph-name="asciicircum" unicode="^" horiz-adv-x="392" 
d="M189 888l156 -156l-64 -63l-92 93l-93 -93l-63 63z" />
    <glyph glyph-name="underscore" unicode="_" horiz-adv-x="547" 
d="M40 115h478v-115h-478v115z" />
    <glyph glyph-name="grave" unicode="`" horiz-adv-x="264" 
d="M25 660l68 55l138 -167l-68 -55z" />
    <glyph glyph-name="a" unicode="a" horiz-adv-x="714" 
d="M487 514h154v-514h-154v41q-26 -21 -62 -37q-51 -21 -107 -21q-57 0 -108 21q-50 22 -87 59q-38 38 -59 88q-21 51 -21 107t21 107q22 50 59 87t87 59q53 22 108 22q54 0 107 -22q36 -16 62 -37v40zM318 119q57 0 97.5 40.5t40.5 98.5q0 57 -40.5 97.5t-97.5 40.5
q-58 0 -98.5 -40.5t-40.5 -97.5q0 -58 40.5 -98.5t98.5 -40.5z" />
    <glyph glyph-name="b" unicode="b" horiz-adv-x="691" 
d="M399 534q110 0 193 -82t83 -194q0 -111 -81.5 -193.5t-194.5 -82.5q-91 0 -168 57v-39h-156v707h156v-230q74 57 168 57zM399 119q57 0 98 40.5t41 98.5t-41 98.5t-98 40.5q-58 0 -98.5 -40.5t-40.5 -98.5t40.5 -98.5t98.5 -40.5z" />
    <glyph glyph-name="c" unicode="c" horiz-adv-x="606" 
d="M439 174l107 -89q-102 -102 -214 -102q-109 0 -192 80.5t-83 194.5q0 110 81 192.5t194 82.5q125 0 217 -105l-108 -90q-41 59 -113 59q-58 0 -99 -40.5t-41 -98.5t41 -98.5t99 -40.5q69 0 111 55z" />
    <glyph glyph-name="d" unicode="d" horiz-adv-x="707" 
d="M492 707h156v-707h-156v39q-78 -57 -169 -57q-112 0 -194.5 82t-82.5 195q0 109 81.5 192.5t195.5 83.5q90 0 169 -57v229zM323 119q58 0 98.5 41t40.5 99q0 57 -40.5 98t-98.5 41t-98.5 -41t-40.5 -98q0 -58 40.5 -99t98.5 -41z" />
    <glyph glyph-name="e" unicode="e" horiz-adv-x="616" 
d="M453 168l112 -69q-100 -116 -225 -116q-106 0 -184 70t-89 175q-13 119 69.5 212t204.5 93q83 0 145.5 -48.5t89.5 -124.5t14 -156h-383q16 -41 52 -65.5t81 -24.5q64 0 113 54zM341 402q-54 0 -94 -30t-40 -69h255q0 40 -38 69.5t-83 29.5z" />
    <glyph glyph-name="f" unicode="f" 
d="M150 556q0 111 83 152t207 -2v-98q-5 1 -14.5 2t-32.5 1.5t-40.5 -3.5t-32 -17t-14.5 -35v-40h120v-122h-1h-119v-394h-156v394h-91v122h91v40z" />
    <glyph glyph-name="g" unicode="g" horiz-adv-x="645" 
d="M442 515h155v-503q0 -54 -19 -107.5t-55.5 -100t-99 -76t-139.5 -29.5q-107 0 -194 67l104 116q41 -28 90 -28q62 0 107 42.5t50 103.5q-60 -30 -126 -30q-116 0 -198 82t-82 198t82 198t198 82q73 0 127 -44v29zM302 117q55 0 97.5 40t42.5 96t-40.5 99t-99.5 43
q-57 0 -97.5 -40.5t-40.5 -98.5t40.5 -98.5t97.5 -40.5z" />
    <glyph glyph-name="h" unicode="h" horiz-adv-x="721" 
d="M416 522q61 0 108.5 -19t75.5 -48t45.5 -69t23.5 -77t6 -77v-232h-154v232q0 126 -123 126q-49 0 -84.5 -36t-36.5 -87v-235h-157v708h157v-246q60 60 139 60z" />
    <glyph glyph-name="i" unicode="i" horiz-adv-x="264" 
d="M81 0v513h156v-513h-156zM249 664q0 -38 -26.5 -64t-63.5 -26q-38 0 -64.5 26.5t-26.5 63.5q0 38 27 64.5t64 26.5t63.5 -26.5t26.5 -64.5z" />
    <glyph glyph-name="j" unicode="j" horiz-adv-x="428" 
d="M187 513h155v-489q0 -78 -25 -135q-28 -71 -90 -120.5t-138 -64.5v161q98 40 98 159v489zM355 663q0 -37 -27 -63.5t-64 -26.5t-63.5 26.5t-26.5 63.5t26.5 64t63.5 27q38 0 64.5 -27t26.5 -64z" />
    <glyph glyph-name="k" unicode="k" horiz-adv-x="749" 
d="M403 313l269 -313h-207l-150 210l-66 -65v-145h-156v707h156v-344l162 152h190z" />
    <glyph glyph-name="l" unicode="l" horiz-adv-x="261" 
d="M69 0v707h156v-707h-156z" />
    <glyph glyph-name="m" unicode="m" horiz-adv-x="1071" 
d="M826 528q58 -9 99 -37.5t61.5 -69t29 -81t8.5 -85.5v-255h-155v255q0 64 -27 94.5t-93 30.5q-49 0 -83 -35.5t-34 -86.5v-258h-155v255q0 64 -27 94.5t-93 30.5q-49 0 -83 -35.5t-34 -86.5v-258h-158v515h156v-41q58 58 138 58q152 0 215 -106q22 35 53 61q70 57 182 41z
" />
    <glyph glyph-name="n" unicode="n" horiz-adv-x="643" 
d="M356 532q61 0 107.5 -17.5t74 -45t45 -65.5t23.5 -73.5t6 -75.5v-255h-155v255q0 64 -26.5 94.5t-93.5 30.5q-49 0 -82.5 -35.5t-34.5 -86.5v-258h-157v515h155v-41q58 58 138 58z" />
    <glyph glyph-name="o" unicode="o" horiz-adv-x="648" 
d="M598 362q20 -50 22 -107q0 -54 -22 -107q-21 -49 -59 -87q-36 -37 -87 -59q-50 -22 -107 -22q-56 0 -107 21q-48 20 -88 59q-37 37 -59 87q-21 51 -21 107q-1 53 21 107q21 50 59 88t87 59q53 22 107 22q57 0 107 -22q47 -18 88 -58q39 -40 59 -88zM345 116q57 0 97.5 41
t40.5 98q0 58 -40.5 98t-98.5 40q-57 0 -97.5 -40.5t-40.5 -97.5q0 -58 40.5 -98.5t98.5 -40.5z" />
    <glyph glyph-name="p" unicode="p" horiz-adv-x="695" 
d="M658 368q22 -53 22 -107t-22 -107q-20 -48 -59 -88q-37 -37 -87 -59q-51 -21 -108 -21q-56 0 -107 21q-32 14 -61 36v-251h-155v723h155v-36q29 22 61 36q51 21 107 21q57 0 108 -21q50 -22 87 -59q39 -40 59 -88zM404 122q58 0 98.5 40.5t40.5 98.5t-40.5 98.5
t-98.5 40.5q-57 0 -97.5 -40.5t-40.5 -98.5t40.5 -98.5t97.5 -40.5z" />
    <glyph glyph-name="q" unicode="q" horiz-adv-x="720" 
d="M89 151q-22 53 -22 108q0 54 22 107q21 50 59 88t88 59q50 22 107 22q58 0 108 -22q32 -13 60 -35v39h156v-702h-156v224q-24 -19 -60 -35q-51 -21 -108 -21q-56 0 -107 21q-51 22 -88 60q-38 38 -59 87zM343 398q-57 0 -98 -40.5t-41 -98.5t41 -98.5t98 -40.5
q58 0 98.5 40.5t40.5 98.5t-40.5 98.5t-98.5 40.5z" />
    <glyph glyph-name="r" unicode="r" horiz-adv-x="508" 
d="M397 529q27 0 48 -6v-131q-15 3 -32 3q-58 0 -98 -42.5t-40 -114.5v-238h-154v514h154v-60q31 75 122 75z" />
    <glyph glyph-name="s" unicode="s" horiz-adv-x="591" 
d="M532 199q6 -23 6 -49q0 -33 -19 -66q-19 -31 -51 -53q-31 -24 -73 -36q-44 -14 -89 -14q-56 0 -103 18q-47 17 -74 44q-58 59 -58 123h146q0 -33 26.5 -51.5t62.5 -18.5q28 0 57 14t29 40q0 50 -126 67q-76 9 -125 40q-61 36 -61 104q0 70 64.5 120t155.5 50
q102 0 165 -46q56 -42 56 -108h-133q0 23 -29.5 33.5t-57.5 10.5q-76 0 -76 -48q0 -10 6.5 -17t22 -11.5t28.5 -7t38 -6.5q97 -15 143 -41q34 -20 54 -52q12 -23 15 -39z" />
    <glyph glyph-name="t" unicode="t" horiz-adv-x="475" 
d="M449 397h-140v-166q0 -29 5.5 -49t12 -30t22 -15t25 -6t32.5 -1v-139q-135 -24 -196.5 31t-61.5 158v217h-76v118h76v192h161v-192h140v-118z" />
    <glyph glyph-name="u" unicode="u" horiz-adv-x="673" 
d="M341 -17q-61 0 -107.5 17.5t-74 45t-45 65.5t-23.5 73.5t-6 75.5v255h155v-255q0 -64 26.5 -94.5t92.5 -30.5q49 0 82.5 35t34.5 86q2 160 2 259h155v-515h-155v41q-58 -58 -137 -58z" />
    <glyph glyph-name="v" unicode="v" horiz-adv-x="589" 
d="M418 515h151l-199 -515h-172l-199 515h152l133 -309z" />
    <glyph glyph-name="w" unicode="w" horiz-adv-x="931" 
d="M766 515h155l-220 -515h-139l-93 276l-92 -276h-140l-220 515h155l128 -316l106 316h126l106 -316z" />
    <glyph glyph-name="x" unicode="x" horiz-adv-x="594" 
d="M401 260l174 -176l-98 -99l-174 175l-176 -174l-98 98l175 177l-176 174l98 99l177 -174l173 175l99 -98z" />
    <glyph glyph-name="y" unicode="y" horiz-adv-x="522" 
d="M394 515h162q-152 -384 -205 -511q-126 -300 -291 -300v169q43 0 81.5 39t38.5 92l-197 511h152l130 -306z" />
    <glyph glyph-name="z" unicode="z" horiz-adv-x="532" 
d="M488 515v-125l-261 -258h261v-132h-434v130l252 260h-252v125h434z" />
    <glyph glyph-name="braceleft" unicode="{" 
d="M340 745v-793h-155v274l-78 122l78 122v275h155z" />
    <glyph glyph-name="bar" unicode="|" horiz-adv-x="293" 
d="M69 -59v835h133v-835h-133z" />
    <glyph glyph-name="braceright" unicode="}" horiz-adv-x="415" 
d="M106 -49v793h155v-274l78 -122l-78 -122v-275h-155z" />
    <glyph glyph-name="asciitilde" unicode="~" horiz-adv-x="490" 
d="M500 811q-8 -7 -25.5 -18t-55.5 -25.5t-72 -14.5q-31 0 -97 27.5t-89 27.5q-21 0 -46 -12.5t-35 -21.5l-72 92q8 7 26 18t55.5 25t71.5 14q32 0 98 -26.5t88 -26.5q21 0 46.5 12.5t35.5 21.5z" />
    <glyph glyph-name="exclamdown" unicode="&#xa1;" horiz-adv-x="286" 
d="M225 -19h-153v503h153v-503zM78 572q-30 27 -30 66q0 38 30 64q29 27 72 27q40 0 70 -27q31 -25 31 -64t-31 -66q-30 -25 -70 -25q-44 0 -72 25z" />
    <glyph glyph-name="cent" unicode="&#xa2;" horiz-adv-x="481" 
d="M316 160q24 11 45 34l97 -81q-5 -7 -16 -18q-32 -32 -73 -50q-28 -10 -53 -14v-50h-114v60q-2 1 -6 2t-6 2q-41 18 -73 50q-33 33 -49 73q-19 44 -19 89t19 89q16 41 49 74q33 32 73 49q8 4 12 5v65h114v-54q29 -5 53 -16q41 -17 73 -49q13 -13 19 -21l-98 -81
q-21 24 -47 37v-195zM170 257q0 -44 32 -76v153q-32 -34 -32 -77z" />
    <glyph glyph-name="copyright" unicode="&#xa9;" horiz-adv-x="389" 
d="M221 545l31 -26q-22 -30 -63 -30q-31 0 -55 24t-24 55q0 33 23 57t56 24q34 0 64 -30l-31 -26q-14 17 -34 17q-17 0 -28.5 -12t-11.5 -30q0 -16 11.5 -27.5t28.5 -11.5q22 0 33 16zM189 416q-31 0 -58 12q-26 10 -50 33q-21 22 -32 49q-12 28 -12 58q0 59 44 110
q26 22 50 32q27 12 58 12t60 -12q27 -11 49 -32q22 -23 33 -50q12 -27 12 -60q0 -30 -12 -58t-33 -49t-49 -33q-29 -12 -60 -12zM189 702q-54 0 -93 -39.5t-39 -94.5q0 -54 39 -93t93 -39q55 0 94.5 39t39.5 93q0 56 -39.5 95t-94.5 39z" />
    <glyph glyph-name="ordfeminine" unicode="&#xaa;" horiz-adv-x="302" 
d="M208 525h59v-195h-59v15q-8 -7 -24 -14q-21 -8 -40 -8q-20 0 -41 8q-19 8 -33 22t-23 34q-8 21 -8 40q0 20 8 41q9 20 23 34t33 22q21 8 41 8q19 0 40 -8q16 -7 24 -14v15zM192 428q0 20 -14 34t-34 14t-34 -14t-14 -34t14 -34.5t34 -14.5t34 14.5t14 34.5z" />
    <glyph glyph-name="guillemotleft" unicode="&#xab;" horiz-adv-x="814" 
d="M396 383l274 274l110 -111l-163 -163l163 -164l-110 -110zM30 383l274 274l110 -111l-163 -163l163 -164l-110 -110z" />
    <glyph glyph-name="registered" unicode="&#xae;" horiz-adv-x="402" 
d="M189 416q-31 0 -58 12q-26 10 -50 33q-21 22 -32 49q-12 28 -12 58q0 33 12 60q11 25 32 50q26 22 50 32q27 12 58 12t60 -12q27 -11 49 -32q22 -23 33 -50q12 -27 12 -60q0 -30 -12 -58t-33 -49t-49 -33q-29 -12 -60 -12zM189 702q-54 0 -93 -39.5t-39 -94.5
q0 -54 39 -93t93 -39q55 0 94.5 39t39.5 93q0 56 -39.5 95t-94.5 39zM264 493h-46l-26 38h-26v-38h-37v152h74q23 0 39 -17t16 -42q0 -33 -27 -48zM166 608v-44h31q22 0 22 22q0 9 -6 15.5t-16 6.5h-31z" />
    <glyph glyph-name="degree" unicode="&#xb0;" horiz-adv-x="264" 
d="M132 531q39 0 70 -30t31 -71q0 -38 -29.5 -69t-71.5 -31q-38 0 -69 29.5t-31 70.5q0 37 29.5 69t70.5 32zM132 382q20 0 34.5 14.5t14.5 33.5q0 20 -14.5 34.5t-34.5 14.5q-19 0 -32 -14.5t-13 -34.5q0 -19 13.5 -33.5t31.5 -14.5z" />
    <glyph glyph-name="plusminus" unicode="&#xb1;" 
d="M447 471v-90h-140v-139h-89v139h-140v90h140v140h89v-140h140zM413 150v-96h-288v96h288z" />
    <glyph glyph-name="twosuperior" unicode="&#xb2;" horiz-adv-x="405" 
d="M229 464q-7 -4 -22.5 -11t-23.5 -11.5t-13 -9.5h169v-73h-252v69q0 15 7.5 27.5t21.5 23t26 17.5t31.5 16t26.5 13q37 20 53.5 33t16.5 30q0 57 -57 57q-58 0 -58 -57h-68q0 52 32.5 89t93.5 37q59 0 92.5 -37.5t33.5 -88.5q0 -23 -9 -42.5t-30 -36t-32.5 -23.5
t-38.5 -22z" />
    <glyph glyph-name="threesuperior" unicode="&#xb3;" horiz-adv-x="344" 
d="M206 570q48 0 76.5 -33t28.5 -85q0 -47 -38 -79.5t-92 -32.5v0q-54 0 -91.5 32.5t-37.5 79.5h71q0 -21 16.5 -33.5t41.5 -12.5q26 0 42.5 12.5t16.5 33.5q0 36 -16 48.5t-43 12.5h-73v57l92 71h-140v62h238v-62z" />
    <glyph glyph-name="acute" unicode="&#xb4;" horiz-adv-x="305" 
d="M187 924l68 -55l-138 -167l-68 55z" />
    <glyph glyph-name="periodcentered" unicode="&#xb7;" horiz-adv-x="345" 
d="M254 179q39 -36 39 -85q0 -50 -39 -84q-40 -35 -93 -35t-93 35q-40 34 -40 84t40 85q39 34 93 34t93 -34z" />
    <glyph glyph-name="cedilla" unicode="&#xb8;" 
d="M382 -102v-110h-266v110h266z" />
    <glyph glyph-name="onesuperior" unicode="&#xb9;" horiz-adv-x="257" 
d="M132 707h82v-345h-82v225h-79v55q8 1 20.5 3.5t34.5 19t24 42.5z" />
    <glyph glyph-name="ordmasculine" unicode="&#xba;" horiz-adv-x="253" 
d="M221 470q8 -21 8 -39q0 -19 -8 -38t-21 -32t-31 -21q-21 -8 -39 -8q-19 0 -38 8t-32 21t-21 31q-8 21 -8 39q0 19 8 38t21 32t31 21q21 8 39 8q19 0 38 -8t32 -21t21 -31zM130 381q20 0 35 15t15 35q0 21 -15 35.5t-35 14.5t-35 -15t-15 -35t15 -35t35 -15z" />
    <glyph glyph-name="guillemotright" unicode="&#xbb;" horiz-adv-x="826" 
d="M414 383l-274 -274l-110 111l163 163l-163 164l110 110zM780 383l-274 -274l-110 111l163 163l-163 164l110 110z" />
    <glyph glyph-name="onequarter" unicode="&#xbc;" horiz-adv-x="614" 
d="M118 702h67v-282h-67v184h-65v45q2 0 6.5 1t15 4.5t19 8.5t16 15.5t8.5 23.5zM536 176v-51h-42v-74h-67v74h-140v51h1l138 157h1h67v-157h42zM363 176h64v78zM305 552h67l-139 -336h-68z" />
    <glyph glyph-name="onehalf" unicode="&#xbd;" 
d="M118 702h67v-282h-67v184h-65v45q2 0 6.5 1t15 4.5t19 8.5t16 15.5t8.5 23.5zM305 552h67l-139 -336h-68zM451 215q-7 -4 -19.5 -9t-19 -9t-10.5 -8h140v-61h-209v57q0 15 11.5 28.5t21.5 20t33.5 18.5t27.5 14q31 16 44 27t13 25q0 47 -47 47q-48 0 -48 -47h-56
q0 43 26.5 73.5t77.5 30.5q49 0 77 -31t28 -73q0 -8 -2 -16t-4 -14t-7 -12.5t-8 -11t-10.5 -10.5t-10.5 -9t-12.5 -8.5t-12 -7.5t-13 -7.5t-11.5 -6.5z" />
    <glyph glyph-name="threequarters" unicode="&#xbe;" 
d="M173 598q38 0 60.5 -26t22.5 -67q0 -37 -30 -62.5t-72 -25.5v0q-42 0 -72 25.5t-30 62.5h56q0 -17 13 -26.5t33 -9.5t33 9.5t13 26.5q0 29 -12.5 38.5t-33.5 9.5h-58v45l73 56h-111v49h188v-49zM328 552h67l-139 -336h-68zM536 176v-51h-42v-74h-67v74h-140v51h1l138 157
h1h67v-157h42zM363 176h64v78z" />
    <glyph glyph-name="questiondown" unicode="&#xbf;" 
d="M48 95q-17 39 -17 83q0 27 10.5 51t33.5 46.5t36.5 33.5t42.5 32q31 23 37 28q10 12 14 33q5 26 5 86v9h156v-9q0 -101 -11 -134q-13 -43 -61 -69q-39 -19 -69 -43q-40 -33 -40 -64q0 -30 15.5 -47.5t30 -21.5t30.5 -4q43 0 63 23.5t20 49.5v8h145v-8q0 -41 -14 -73
q-13 -36 -42 -65q-63 -66 -172 -66q-49 0 -93 14q-45 18 -73 42q-29 26 -47 65zM224 587q-30 27 -30 64q0 36 30 63q26 25 69 25q44 0 70 -25q29 -26 29 -63q0 -38 -29 -64q-28 -25 -70 -25q-41 0 -69 25z" />
    <glyph glyph-name="Agrave" unicode="&#xc0;" horiz-adv-x="892" 
d="M640 0l-44 89h-314l-44 -89h-175l322 647h109l322 -647h-176zM349 217h185l-95 205zM233 874h281l56 -116h-280z" />
    <glyph glyph-name="Aacute" unicode="&#xc1;" horiz-adv-x="845" 
d="M626 0l-44 89h-314l-44 -89h-175l322 647h109l322 -647h-176zM335 217h185l-95 205zM556 760h-280l56 116h281z" />
    <glyph glyph-name="Acircumflex" unicode="&#xc2;" horiz-adv-x="852" 
d="M631 0l-44 89h-315l-44 -89h-176l323 650h118l311 -650h-173zM337 216h189l-97 209zM611 792l-51 -74l-132 90l-131 -90l-51 74l182 125v0v0z" />
    <glyph glyph-name="Atilde" unicode="&#xc3;" horiz-adv-x="855" 
d="M642 0l-44 89h-314l-44 -89h-175l322 647h109l322 -647h-176zM350 215h187l-96 208zM676 810q-6 -6 -24 -18t-54.5 -25.5t-70.5 -13.5q-31 0 -95.5 27t-86.5 27q-35 0 -79 -33l-70 89q8 7 25 18t54 24.5t70 13.5q31 0 96 -26t86 -26q38 0 80 33z" />
    <glyph glyph-name="Adieresis" unicode="&#xc4;" horiz-adv-x="862" 
d="M631 0l-44 89h-315l-44 -89h-176l323 650h118l311 -650h-173zM337 216h189l-97 209zM321 861q28 0 47.5 -19.5t19.5 -47.5t-19.5 -47.5t-47.5 -19.5t-47 19.5t-19 47.5t19 47.5t47 19.5zM534 861q28 0 47.5 -19.5t19.5 -47.5t-19.5 -47.5t-47.5 -19.5t-47.5 19.5
t-19.5 47.5t19.5 47.5t47.5 19.5z" />
    <glyph glyph-name="Ccedilla" unicode="&#xc7;" horiz-adv-x="705" 
d="M544 198l118 -76q-47 -64 -119 -101t-155 -37q-141 0 -241 99.5t-100 240.5t100 241t241 100q82 0 154.5 -37.5t119.5 -101.5l-118 -76q-71 66 -156 66q-80 0 -136 -56t-56 -136q0 -79 56.5 -135t135.5 -56q47 0 81.5 15t74.5 50zM542 -226v115h-321v-115h321z" />
    <glyph glyph-name="Egrave" unicode="&#xc8;" horiz-adv-x="611" 
d="M558 510h-333v-116h263v-139h-263v-116h333v-139h-489v650h489v-140zM175 758l-57 116h281l56 -116h-280z" />
    <glyph glyph-name="Eacute" unicode="&#xc9;" horiz-adv-x="600" 
d="M558 510h-333v-116h263v-139h-263v-116h333v-139h-489v650h489v-140zM495 876l-57 -116h-280l56 116h281z" />
    <glyph glyph-name="Ecircumflex" unicode="&#xca;" horiz-adv-x="597" 
d="M558 510h-333v-116h263v-139h-263v-116h333v-139h-489v650h489v-140zM507 792l-51 -74l-132 90l-131 -90l-51 74l182 125v0v0z" />
    <glyph glyph-name="Edieresis" unicode="&#xcb;" horiz-adv-x="599" 
d="M558 510h-333v-116h263v-139h-263v-116h333v-139h-489v650h489v-140zM209 861q28 0 47.5 -19.5t19.5 -47.5t-19.5 -47.5t-47.5 -19.5t-47 19.5t-19 47.5t19 47.5t47 19.5zM422 861q28 0 47.5 -19.5t19.5 -47.5t-19.5 -47.5t-47.5 -19.5t-47.5 19.5t-19.5 47.5t19.5 47.5
t47.5 19.5z" />
    <glyph glyph-name="Igrave" unicode="&#xcc;" horiz-adv-x="275" 
d="M65 650v-650h156v650h-156zM172 812l50 -101h-157l-49 101h156z" />
    <glyph glyph-name="Iacute" unicode="&#xcd;" horiz-adv-x="294" 
d="M65 0v650h156v-650h-156zM270 812l-50 -101h-156l49 101h157z" />
    <glyph glyph-name="Icircumflex" unicode="&#xce;" horiz-adv-x="300" 
d="M65 650v-650h156v650h-156zM142 925l156 -156l-64 -63l-92 93l-93 -93l-63 63z" />
    <glyph glyph-name="Idieresis" unicode="&#xcf;" horiz-adv-x="300" 
d="M65 0v650h156v-650h-156zM31 861q28 0 47.5 -19.5t19.5 -47.5t-19.5 -47.5t-47.5 -19.5t-47 19.5t-19 47.5t19 47.5t47 19.5zM244 861q28 0 47.5 -19.5t19.5 -47.5t-19.5 -47.5t-47.5 -19.5t-47.5 19.5t-19.5 47.5t19.5 47.5t47.5 19.5z" />
    <glyph glyph-name="Ntilde" unicode="&#xd1;" horiz-adv-x="825" 
d="M613 650h156v-650h-156l-324 389v-389h-156v650h156v0l324 -405v405zM667 812q-8 -6 -22.5 -15.5t-47 -22t-61.5 -12.5q-27 0 -83.5 23.5t-76.5 23.5q-18 0 -39 -10.5t-30 -18.5l-62 79q7 6 22 15.5t47.5 21.5t61.5 12q27 0 84 -23t76 -23q31 0 70 29z" />
    <glyph glyph-name="Ograve" unicode="&#xd2;" horiz-adv-x="795" 
d="M421 667q142 0 242 -100.5t100 -242.5t-100 -242t-242 -100t-242.5 100t-100.5 242t100.5 242.5t242.5 100.5zM421 132q79 0 135.5 56t56.5 136t-56.5 136.5t-135.5 56.5q-80 0 -136.5 -56.5t-56.5 -136.5t56.5 -136t136.5 -56zM293 758l-57 116h281l56 -116h-280z" />
    <glyph glyph-name="Oacute" unicode="&#xd3;" horiz-adv-x="806" 
d="M421 667q142 0 242 -100.5t100 -242.5t-100 -242t-242 -100t-242.5 100t-100.5 242t100.5 242.5t242.5 100.5zM421 132q79 0 135.5 56t56.5 136t-56.5 136.5t-135.5 56.5q-80 0 -136.5 -56.5t-56.5 -136.5t56.5 -136t136.5 -56zM609 876l-57 -116h-280l56 116h281z" />
    <glyph glyph-name="Ocircumflex" unicode="&#xd4;" horiz-adv-x="798" 
d="M421 667q142 0 242 -100.5t100 -242.5t-100 -242t-242 -100t-242.5 100t-100.5 242t100.5 242.5t242.5 100.5zM421 132q79 0 135.5 56t56.5 136t-56.5 136.5t-135.5 56.5q-80 0 -136.5 -56.5t-56.5 -136.5t56.5 -136t136.5 -56zM611 792l-51 -74l-132 90l-131 -90l-51 74
l182 125v0v0z" />
    <glyph glyph-name="Otilde" unicode="&#xd5;" horiz-adv-x="806" 
d="M421 667q142 0 242 -100.5t100 -242.5t-100 -242t-242 -100t-242.5 100t-100.5 242t100.5 242.5t242.5 100.5zM421 132q79 0 135.5 56t56.5 136t-56.5 136.5t-135.5 56.5q-80 0 -136.5 -56.5t-56.5 -136.5t56.5 -136t136.5 -56zM679 811q-8 -7 -25.5 -18t-55.5 -25.5
t-72 -14.5q-32 0 -98 27.5t-88 27.5q-21 0 -46 -12.5t-35 -21.5l-72 92q8 7 26 18t55.5 25t71.5 14q32 0 98 -26.5t88 -26.5q21 0 46.5 12.5t35.5 21.5z" />
    <glyph glyph-name="Odieresis" unicode="&#xd6;" horiz-adv-x="807" 
d="M421 667q142 0 242 -100.5t100 -242.5t-100 -242t-242 -100t-242.5 100t-100.5 242t100.5 242.5t242.5 100.5zM421 132q79 0 135.5 56t56.5 136t-56.5 136.5t-135.5 56.5q-80 0 -136.5 -56.5t-56.5 -136.5t56.5 -136t136.5 -56zM321 861q28 0 47.5 -19.5t19.5 -47.5
t-19.5 -47.5t-47.5 -19.5t-47 19.5t-19 47.5t19 47.5t47 19.5zM534 861q28 0 47.5 -19.5t19.5 -47.5t-19.5 -47.5t-47.5 -19.5t-47.5 19.5t-19.5 47.5t19.5 47.5t47.5 19.5z" />
    <glyph glyph-name="multiply" unicode="&#xd7;" horiz-adv-x="653" 
d="M608 510l-180 -183l180 -181l-97 -97l-179 180l-181 -179l-97 96l182 182l-182 179l97 98l181 -180l179 181z" />
    <glyph glyph-name="Ugrave" unicode="&#xd9;" horiz-adv-x="744" 
d="M544 650h159v-319q0 -154 -94.5 -251t-235.5 -97t-236 97t-95 251v319h159v-319q0 -78 49 -132.5t123 -54.5q73 0 122 54.5t49 132.5v319zM235 758l-57 116h281l56 -116h-280z" />
    <glyph glyph-name="Uacute" unicode="&#xda;" horiz-adv-x="754" 
d="M544 650h159v-319q0 -154 -94.5 -251t-235.5 -97t-236 97t-95 251v319h159v-319q0 -78 49 -132.5t123 -54.5q73 0 122 54.5t49 132.5v319zM550 876l-57 -116h-280l56 116h281z" />
    <glyph glyph-name="Ucircumflex" unicode="&#xdb;" horiz-adv-x="749" 
d="M544 650h159v-319q0 -154 -94.5 -251t-235.5 -97t-236 97t-95 251v319h159v-319q0 -78 49 -132.5t123 -54.5q73 0 122 54.5t49 132.5v319zM566 792l-51 -74l-141 78l-122 -78l-51 74l182 125v0v0z" />
    <glyph glyph-name="Udieresis" unicode="&#xdc;" horiz-adv-x="744" 
d="M544 650h159v-319q0 -154 -94.5 -251t-235.5 -97t-236 97t-95 251v319h159v-319q0 -78 49 -132.5t123 -54.5q73 0 122 54.5t49 132.5v319zM255 861q28 0 47.5 -19.5t19.5 -47.5t-19.5 -47.5t-47.5 -19.5t-47 19.5t-19 47.5t19 47.5t47 19.5zM468 861q28 0 47.5 -19.5
t19.5 -47.5t-19.5 -47.5t-47.5 -19.5t-47.5 19.5t-19.5 47.5t19.5 47.5t47.5 19.5z" />
    <glyph glyph-name="Yacute" unicode="&#xdd;" horiz-adv-x="670" 
d="M517 650h194l-273 -376v-274h-194v274l-274 376h194l177 -236zM529 876l-57 -116h-280l56 116h281z" />
    <glyph glyph-name="agrave" unicode="&#xe0;" horiz-adv-x="717" 
d="M507 513h154v-513h-154v41q-27 -21 -63 -37q-51 -21 -107 -21t-107 21q-50 22 -87 59t-59 87q-22 53 -22 107t22 107q20 48 59 88q37 37 87 59q51 21 107 21t107 -21q36 -16 63 -37v39zM464 258q0 53 -37 90t-89 37t-89.5 -37.5t-37.5 -89.5t37.5 -89.5t89.5 -37.5t89 37
t37 90zM465 750l57 -117h-280l-56 117h279z" />
    <glyph glyph-name="aacute" unicode="&#xe1;" horiz-adv-x="711" 
d="M507 513h154v-513h-154v41q-27 -21 -63 -37q-51 -21 -107 -21t-107 21q-50 22 -87 59t-59 87q-22 53 -22 107t22 107q20 48 59 88q37 37 87 59q51 21 107 21t107 -21q36 -16 63 -37v39zM464 258q0 53 -37 90t-89 37t-89.5 -37.5t-37.5 -89.5t37.5 -89.5t89.5 -37.5t89 37
t37 90zM578 749l-57 -116h-280l56 116h281z" />
    <glyph glyph-name="acircumflex" unicode="&#xe2;" horiz-adv-x="719" 
d="M507 513h154v-513h-154v41q-27 -21 -63 -37q-51 -21 -107 -21t-107 21q-50 22 -87 59t-59 87q-22 53 -22 107t22 107q20 48 59 88q37 37 87 59q51 21 107 21t107 -21q36 -16 63 -37v39zM464 258q0 53 -37 90t-89 37t-89.5 -37.5t-37.5 -89.5t37.5 -89.5t89.5 -37.5t89 37
t37 90zM564 749l-51 -74l-132 90l-131 -90l-51 74l182 125v0v0z" />
    <glyph glyph-name="atilde" unicode="&#xe3;" horiz-adv-x="700" 
d="M507 513h154v-513h-154v41q-27 -21 -63 -37q-51 -21 -107 -21t-107 21q-50 22 -87 59t-59 87q-22 53 -22 107t22 107q20 48 59 88q37 37 87 59q51 21 107 21t107 -21q36 -16 63 -37v39zM464 258q0 53 -37 90t-89 37t-89.5 -37.5t-37.5 -89.5t37.5 -89.5t89.5 -37.5t89 37
t37 90zM608 702q-8 -6 -22.5 -15.5t-47 -22t-61.5 -12.5q-27 0 -83.5 23.5t-76.5 23.5q-17 0 -38.5 -10.5t-30.5 -18.5l-62 79q7 6 22 15.5t47.5 21.5t61.5 12q27 0 84 -23t76 -23q31 0 70 29z" />
    <glyph glyph-name="adieresis" unicode="&#xe4;" horiz-adv-x="708" 
d="M507 513h154v-513h-154v41q-27 -21 -63 -37q-51 -21 -107 -21t-107 21q-50 22 -87 59t-59 87q-22 53 -22 107t22 107q20 48 59 88q37 37 87 59q51 21 107 21t107 -21q36 -16 63 -37v39zM464 258q0 53 -37 90t-89 37t-89.5 -37.5t-37.5 -89.5t37.5 -89.5t89.5 -37.5t89 37
t37 90zM271 745q28 0 47.5 -19.5t19.5 -47.5t-19.5 -47.5t-47.5 -19.5t-47 19.5t-19 47.5t19 47.5t47 19.5zM484 745q28 0 47.5 -19.5t19.5 -47.5t-19.5 -47.5t-47.5 -19.5t-47.5 19.5t-19.5 47.5t19.5 47.5t47.5 19.5z" />
    <glyph glyph-name="ccedilla" unicode="&#xe7;" horiz-adv-x="602" 
d="M423 182l116 -97q-9 -12 -19 -22q-38 -38 -88 -59q-53 -22 -107 -22t-107 22q-50 22 -87 59t-59 87q-22 53 -22 107t22 107q21 50 59 88q37 37 87 59q51 21 107 21t107 -21q50 -21 88 -59q12 -12 22 -25l-117 -97q-49 54 -104 54q-53 0 -90 -37t-37 -90t37 -90t90 -37
t102 52zM436 -212v110h-266v-110h266z" />
    <glyph glyph-name="egrave" unicode="&#xe8;" horiz-adv-x="673" 
d="M488 185l113 -69q-1 -1 -10 -13q-73 -89 -185 -101q-20 -2 -30 -2q-106 0 -184 70.5t-89 174.5q-13 113 59 202t185 101q9 2 29 2q104 0 173 -69t81 -176q4 -40 -4 -84h-383q16 -40 52 -65t81 -25q11 0 16 1q59 6 96 53zM376 419q-54 0 -93.5 -30t-39.5 -69h255
q0 40 -38 69.5t-84 29.5zM419 712l50 -101h-214l-49 101h213z" />
    <glyph glyph-name="eacute" unicode="&#xe9;" horiz-adv-x="600" 
d="M427 185l113 -69q-1 -1 -10 -13q-73 -89 -185 -101q-20 -2 -30 -2q-106 0 -184 70.5t-89 174.5q-13 113 59 202t185 101q9 2 29 2q104 0 173 -69t81 -176q4 -40 -4 -84h-383q16 -40 52 -65t81 -25q11 0 16 1q59 6 96 53zM315 419q-54 0 -93.5 -30t-39.5 -69h255
q0 40 -38 69.5t-84 29.5zM512 763l-57 -116h-280l56 116h281z" />
    <glyph glyph-name="ecircumflex" unicode="&#xea;" horiz-adv-x="614" 
d="M446 185l113 -69q-1 -1 -10 -13q-73 -89 -185 -101q-20 -2 -30 -2q-106 0 -184 70.5t-89 174.5q-13 113 59 202t185 101q9 2 29 2q104 0 173 -69t81 -176q4 -40 -4 -84h-383q16 -40 52 -65t81 -25q11 0 16 1q59 6 96 53zM334 419q-54 0 -93.5 -30t-39.5 -69h255
q0 40 -38 69.5t-84 29.5zM518 660l-51 -74l-132 90l-131 -90l-51 74l182 125v0v0z" />
    <glyph glyph-name="edieresis" unicode="&#xeb;" horiz-adv-x="642" 
d="M446 185l113 -69q-1 -1 -10 -13q-73 -89 -185 -101q-20 -2 -30 -2q-106 0 -184 70.5t-89 174.5q-13 113 59 202t185 101q9 2 29 2q104 0 173 -69t81 -176q4 -40 -4 -84h-383q16 -40 52 -65t81 -25q11 0 16 1q59 6 96 53zM334 419q-54 0 -93.5 -30t-39.5 -69h255
q0 40 -38 69.5t-84 29.5zM223 745q28 0 47.5 -19.5t19.5 -47.5t-19.5 -47.5t-47.5 -19.5t-47 19.5t-19 47.5t19 47.5t47 19.5zM436 745q28 0 47.5 -19.5t19.5 -47.5t-19.5 -47.5t-47.5 -19.5t-47.5 19.5t-19.5 47.5t19.5 47.5t47.5 19.5z" />
    <glyph glyph-name="igrave" unicode="&#xec;" horiz-adv-x="290" 
d="M81 0v515h156v-515h-156zM183 706l57 -116h-157l-56 116h156z" />
    <glyph glyph-name="iacute" unicode="&#xed;" horiz-adv-x="295" 
d="M81 0v515h156v-515h-156zM284 708l-50 -101h-156l49 101h157z" />
    <glyph glyph-name="icircumflex" unicode="&#xee;" horiz-adv-x="322" 
d="M81 0v513h156v-513h-156zM341 660l-51 -74l-132 90l-131 -90l-51 74l182 125v0v0z" />
    <glyph glyph-name="idieresis" unicode="&#xef;" horiz-adv-x="313" 
d="M81 0v513h156v-513h-156zM54 721q28 0 47.5 -19.5t19.5 -47.5t-19.5 -47.5t-47.5 -19.5t-47 19.5t-19 47.5t19 47.5t47 19.5zM267 721q28 0 47.5 -19.5t19.5 -47.5t-19.5 -47.5t-47.5 -19.5t-47.5 19.5t-19.5 47.5t19.5 47.5t47.5 19.5z" />
    <glyph glyph-name="ntilde" unicode="&#xf1;" horiz-adv-x="656" 
d="M356 532q61 0 107.5 -17.5t74 -45t45 -65.5t23.5 -73.5t6 -75.5v-255h-155v255q0 64 -26.5 94.5t-93.5 30.5q-49 0 -82.5 -35.5t-34.5 -86.5v-258h-157v515h155v-41q58 58 138 58zM538 702q-8 -6 -22.5 -15.5t-47 -22t-61.5 -12.5q-27 0 -83.5 23.5t-76.5 23.5
q-17 0 -38.5 -10.5t-30.5 -18.5l-62 79q7 6 22 15.5t47.5 21.5t61.5 12q27 0 84 -23t76 -23q31 0 70 29z" />
    <glyph glyph-name="ograve" unicode="&#xf2;" horiz-adv-x="658" 
d="M598 362q20 -50 22 -107q0 -54 -22 -107q-21 -49 -59 -87q-36 -37 -87 -59q-50 -22 -107 -22q-56 0 -107 21q-48 20 -88 59q-37 37 -59 87q-21 51 -21 107q-1 53 21 107q21 50 59 88t87 59q53 22 107 22q57 0 107 -22q47 -18 88 -58q39 -40 59 -88zM345 116q57 0 97.5 41
t40.5 98q0 58 -40.5 98t-98.5 40q-57 0 -97.5 -40.5t-40.5 -97.5q0 -58 40.5 -98.5t98.5 -40.5zM406 712l50 -101h-214l-49 101h213z" />
    <glyph glyph-name="oacute" unicode="&#xf3;" horiz-adv-x="679" 
d="M598 362q20 -50 22 -107q0 -54 -22 -107q-21 -49 -59 -87q-36 -37 -87 -59q-50 -22 -107 -22q-56 0 -107 21q-48 20 -88 59q-37 37 -59 87q-21 51 -21 107q-1 53 21 107q21 50 59 88t87 59q53 22 107 22q57 0 107 -22q47 -18 88 -58q39 -40 59 -88zM345 116q57 0 97.5 41
t40.5 98q0 58 -40.5 98t-98.5 40q-57 0 -97.5 -40.5t-40.5 -97.5q0 -58 40.5 -98.5t98.5 -40.5zM541 749l-57 -116h-280l56 116h281z" />
    <glyph glyph-name="ocircumflex" unicode="&#xf4;" horiz-adv-x="671" 
d="M598 362q20 -50 22 -107q0 -54 -22 -107q-21 -49 -59 -87q-36 -37 -87 -59q-50 -22 -107 -22q-56 0 -107 21q-48 20 -88 59q-37 37 -59 87q-21 51 -21 107q-1 53 21 107q21 50 59 88t87 59q53 22 107 22q57 0 107 -22q47 -18 88 -58q39 -40 59 -88zM345 116q57 0 97.5 41
t40.5 98q0 58 -40.5 98t-98.5 40q-57 0 -97.5 -40.5t-40.5 -97.5q0 -58 40.5 -98.5t98.5 -40.5zM528 654l-51 -74l-132 90l-131 -90l-51 74l182 125v0v0z" />
    <glyph glyph-name="otilde" unicode="&#xf5;" horiz-adv-x="659" 
d="M598 362q20 -50 22 -107q0 -54 -22 -107q-21 -49 -59 -87q-36 -37 -87 -59q-50 -22 -107 -22q-56 0 -107 21q-48 20 -88 59q-37 37 -59 87q-21 51 -21 107q-1 53 21 107q21 50 59 88t87 59q53 22 107 22q57 0 107 -22q47 -18 88 -58q39 -40 59 -88zM345 116q57 0 97.5 41
t40.5 98q0 58 -40.5 98t-98.5 40q-57 0 -97.5 -40.5t-40.5 -97.5q0 -58 40.5 -98.5t98.5 -40.5zM556 702q-8 -6 -22.5 -15.5t-47 -22t-61.5 -12.5q-27 0 -83.5 23.5t-76.5 23.5q-17 0 -38.5 -10.5t-30.5 -18.5l-62 79q7 6 22 15.5t47.5 21.5t61.5 12q27 0 84 -23t76 -23
q31 0 70 29z" />
    <glyph glyph-name="odieresis" unicode="&#xf6;" horiz-adv-x="649" 
d="M598 362q20 -50 22 -107q0 -54 -22 -107q-21 -49 -59 -87q-36 -37 -87 -59q-50 -22 -107 -22q-56 0 -107 21q-48 20 -88 59q-37 37 -59 87q-21 51 -21 107q-1 53 21 107q21 50 59 88t87 59q53 22 107 22q57 0 107 -22q47 -18 88 -58q39 -40 59 -88zM345 116q57 0 97.5 41
t40.5 98q0 58 -40.5 98t-98.5 40q-57 0 -97.5 -40.5t-40.5 -97.5q0 -58 40.5 -98.5t98.5 -40.5zM245 745q28 0 47.5 -19.5t19.5 -47.5t-19.5 -47.5t-47.5 -19.5t-47 19.5t-19 47.5t19 47.5t47 19.5zM458 745q28 0 47.5 -19.5t19.5 -47.5t-19.5 -47.5t-47.5 -19.5t-47.5 19.5
t-19.5 47.5t19.5 47.5t47.5 19.5z" />
    <glyph glyph-name="divide" unicode="&#xf7;" horiz-adv-x="547" 
d="M375 617q0 -44 -31.5 -75.5t-75.5 -31.5t-75.5 31.5t-31.5 75.5t31.5 75t75.5 31t75.5 -31t31.5 -75zM374 131q0 -44 -31.5 -75.5t-75.5 -31.5t-75.5 31.5t-31.5 75.5t31.5 75t75.5 31t75.5 -31t31.5 -75zM496 445v-139h-456v139h456z" />
    <glyph glyph-name="oslash" unicode="&#xf8;" horiz-adv-x="633" 
d="M393 514q81 -32 132 -100.5t53 -158.5q0 -102 -69 -177.5t-175 -95.5l-7 -62h-114l8 72q-87 37 -140 102t-53 160q-3 104 72 184.5t181 90.5l6 58h114zM164 255q0 -39 20 -72t53 -50l28 255q-44 -12 -72.5 -49t-28.5 -84zM350 124q40 15 65.5 51t25.5 80q0 77 -64 116z
" />
    <glyph glyph-name="ugrave" unicode="&#xf9;" horiz-adv-x="671" 
d="M341 -17q-61 0 -107.5 17.5t-74 45t-45 65.5t-23.5 73.5t-6 75.5v254h155v-254q0 -64 26.5 -94.5t92.5 -30.5q49 0 82.5 35t34.5 86q2 159 2 258h155v-514h-155v41q-58 -58 -137 -58zM415 712l50 -101h-214l-49 101h213z" />
    <glyph glyph-name="uacute" unicode="&#xfa;" horiz-adv-x="658" 
d="M341 -17q-61 0 -107.5 17.5t-74 45t-45 65.5t-23.5 73.5t-6 75.5v254h155v-254q0 -64 26.5 -94.5t92.5 -30.5q49 0 82.5 35t34.5 86q2 159 2 258h155v-514h-155v41q-58 -58 -137 -58zM538 749l-57 -116h-280l56 116h281z" />
    <glyph glyph-name="ucircumflex" unicode="&#xfb;" horiz-adv-x="665" 
d="M341 -17q-61 0 -107.5 17.5t-74 45t-45 65.5t-23.5 73.5t-6 75.5v254h155v-254q0 -64 26.5 -94.5t92.5 -30.5q49 0 82.5 35t34.5 86q2 159 2 258h155v-514h-155v41q-58 -58 -137 -58zM532 660l-51 -74l-132 90l-131 -90l-51 74l182 125v0v0z" />
    <glyph glyph-name="udieresis" unicode="&#xfc;" horiz-adv-x="666" 
d="M341 -17q-61 0 -107.5 17.5t-74 45t-45 65.5t-23.5 73.5t-6 75.5v254h155v-254q0 -64 26.5 -94.5t92.5 -30.5q49 0 82.5 35t34.5 86q2 159 2 258h155v-514h-155v41q-58 -58 -137 -58zM257 745q28 0 47.5 -19.5t19.5 -47.5t-19.5 -47.5t-47.5 -19.5t-47 19.5t-19 47.5
t19 47.5t47 19.5zM470 745q28 0 47.5 -19.5t19.5 -47.5t-19.5 -47.5t-47.5 -19.5t-47.5 19.5t-19.5 47.5t19.5 47.5t47.5 19.5z" />
    <glyph glyph-name="yacute" unicode="&#xfd;" horiz-adv-x="531" 
d="M393 513h162q-151 -382 -204 -509q-126 -300 -291 -300v169q43 0 81.5 39t38.5 92l-198 509h152l131 -304zM447 749l-57 -116h-280l56 116h281z" />
    <glyph glyph-name="ydieresis" unicode="&#xff;" horiz-adv-x="528" 
d="M393 513h162q-151 -382 -204 -509q-126 -300 -291 -300v169q43 0 81.5 39t38.5 92l-198 509h152l131 -304zM153 745q28 0 47.5 -19.5t19.5 -47.5t-19.5 -47.5t-47.5 -19.5t-47 19.5t-19 47.5t19 47.5t47 19.5zM366 745q28 0 47.5 -19.5t19.5 -47.5t-19.5 -47.5
t-47.5 -19.5t-47.5 19.5t-19.5 47.5t19.5 47.5t47.5 19.5z" />
    <glyph glyph-name="circumflex" unicode="&#x2c6;" horiz-adv-x="411" 
d="M189 888l156 -156l-64 -63l-92 93l-93 -93l-63 63z" />
    <glyph glyph-name="tilde" unicode="&#x2dc;" 
d="M450 734q-8 -6 -22.5 -15.5t-47 -22t-61.5 -12.5q-27 0 -83.5 23.5t-76.5 23.5q-17 0 -38.5 -10.5t-30.5 -18.5l-62 79q7 6 22 15.5t47.5 21.5t61.5 12q27 0 84 -23t76 -23q31 0 70 29z" />
    <glyph glyph-name="quoteleft" unicode="&#x2018;" horiz-adv-x="219" 
d="M65 703h108v-270h-108v270z" />
    <glyph glyph-name="quoteright" unicode="&#x2019;" horiz-adv-x="227" 
d="M65 703h108v-270h-108v270z" />
    <glyph glyph-name="quotesinglbase" unicode="&#x201a;" horiz-adv-x="257" 
d="M65 116h108v-270h-108v270z" />
    <glyph glyph-name="quotedblleft" unicode="&#x201c;" horiz-adv-x="382" 
d="M65 703h108v-270h-108v270zM224 703h109v-270h-109v270z" />
    <glyph glyph-name="quotedblright" unicode="&#x201d;" horiz-adv-x="389" 
d="M65 703h108v-270h-108v270zM224 703h109v-270h-109v270z" />
    <glyph glyph-name="quotedblbase" unicode="&#x201e;" horiz-adv-x="397" 
d="M65 116h108v-270h-108v270zM232 116h108v-270h-108v270z" />
    <glyph glyph-name="bullet" unicode="&#x2022;" horiz-adv-x="279" 
d="M209 249q0 -29 -19.5 -48.5t-48.5 -19.5t-48.5 19.5t-19.5 48.5t19.5 48.5t48.5 19.5t48.5 -19.5t19.5 -48.5z" />
    <glyph glyph-name="guilsinglleft" unicode="&#x2039;" horiz-adv-x="471" 
d="M30 383l274 274l110 -111l-163 -163l163 -164l-110 -110z" />
    <glyph glyph-name="guilsinglright" unicode="&#x203a;" horiz-adv-x="481" 
d="M414 383l-274 -274l-110 111l163 163l-163 164l110 110z" />
    <glyph glyph-name="fraction" unicode="&#x2044;" horiz-adv-x="436" 
d="M220 707h140l-148 -707h-142z" />
    <glyph glyph-name="Euro" unicode="&#x20ac;" 
d="M269 91q41 0 71 13.5t66 44.5l104 -67q-42 -57 -105 -89.5t-136 -32.5q-91 0 -157 76t-94 186h-89v96h75q0 34 1 52h-76v96h93q29 106 94 177.5t153 71.5q73 0 136 -33t105 -90l-104 -66q-35 31 -65.5 44t-71.5 13q-74 0 -113 -117h186v-96h-205q-1 -11 -1 -52h206v-96
h-190q17 -57 46.5 -94t70.5 -37z" />
    <glyph glyph-name="trademark" unicode="&#x2122;" horiz-adv-x="572" 
d="M274 650v-49h-88v-182h-55v182h-88v49h231zM486 650h55v-231h-55v118l-54 -118h-24l-53 117v-117h-56v231h56v-1l65 -129z" />
    <glyph glyph-name="minus" unicode="&#x2212;" 
d="M410 373v-140h-370v140h370z" />
    <glyph glyph-name="i.alt1" horiz-adv-x="264" 
d="M81 0v513h156v-513h-156zM80 572v136h157v-136h-157z" />
    <glyph glyph-name="a.alt1" horiz-adv-x="635" 
d="M313 530q95 0 180 -67.5t85 -165.5v-297h-155v32q-43 -21 -87.5 -35t-93.5 -16.5t-88.5 10.5t-68.5 51t-38 99q-15 112 91 160t285 0q0 30 -29 56t-84 26q-43 0 -89 -11t-71 -22l-25 -11l-72 120q44 30 123 50.5t137 20.5zM201 166q7 -52 61 -57t106 28t55 75
q-118 30 -174 18.5t-48 -64.5z" />
    <glyph glyph-name="j.alt1" horiz-adv-x="428" 
d="M187 513h155v-489q0 -78 -25 -135q-23 -56 -67 -99q-43 -44 -99 -67q-28 -12 -62 -19v161q98 40 98 159v489zM185 572v136h157v-136h-157z" />
    <glyph glyph-name="Atilde.alt1" horiz-adv-x="855" 
d="M642 0l-44 89h-314l-44 -89h-175l322 647h109l322 -647h-176zM350 215h187l-96 208zM608 858v-115h-321v115h321z" />
    <glyph glyph-name="Ccedilla.alt1" horiz-adv-x="705" 
d="M371 135q47 0 81.5 15.5t75.5 50.5l119 -76q-82 -112 -220 -135l-177 -177l-98 98l97 97q-98 37 -159 124.5t-61 195.5q0 142 100 242t242 100q83 0 155.5 -37.5t120.5 -101.5l-119 -77q-71 66 -157 66q-79 0 -135.5 -56t-56.5 -136t56.5 -136.5t135.5 -56.5z" />
    <glyph glyph-name="ccedilla.alt1" horiz-adv-x="602" 
d="M332 103q38 0 66 12.5t61 40.5l95 -62q-66 -90 -177 -108l-142 -143l-79 80l78 78q-79 30 -128 100t-49 157q0 114 80.5 195t194.5 81q67 0 125.5 -30t96.5 -82l-95 -62q-58 53 -127 53q-64 0 -109.5 -45.5t-45.5 -109.5t45.5 -109.5t109.5 -45.5z" />
    <glyph glyph-name="atilde.alt1" horiz-adv-x="700" 
d="M507 513h154v-513h-154v41q-27 -21 -63 -37q-51 -21 -107 -21t-107 21q-50 22 -87 59t-59 87q-22 53 -22 107t22 107q20 48 59 88q37 37 87 59q51 21 107 21t107 -21q36 -16 63 -37v39zM464 258q0 53 -37 90t-89 37t-89.5 -37.5t-37.5 -89.5t37.5 -89.5t89.5 -37.5t89 37
t37 90zM551 743v-115h-321v115h321z" />
    <glyph glyph-name="Ntilde.alt1" horiz-adv-x="825" 
d="M613 650h156v-650h-156l-324 389v-389h-156v650h156v0l324 -405v405zM608 858v-115h-321v115h321z" />
    <glyph glyph-name="ntilde.alt1" horiz-adv-x="656" 
d="M356 532q61 0 107.5 -17.5t74 -45t45 -65.5t23.5 -73.5t6 -75.5v-255h-155v255q0 64 -26.5 94.5t-93.5 30.5q-49 0 -82.5 -35.5t-34.5 -86.5v-258h-157v515h155v-41q58 58 138 58zM534 743v-115h-321v115h321z" />
    <glyph glyph-name="Otilde.alt1" horiz-adv-x="806" 
d="M421 667q142 0 242 -100.5t100 -242.5t-100 -242t-242 -100t-242.5 100t-100.5 242t100.5 242.5t242.5 100.5zM421 132q79 0 135.5 56t56.5 136t-56.5 136.5t-135.5 56.5q-80 0 -136.5 -56.5t-56.5 -136.5t56.5 -136t136.5 -56zM608 858v-115h-321v115h321z" />
    <glyph glyph-name="otilde.alt1" horiz-adv-x="659" 
d="M344 530q112 0 192.5 -81t83.5 -194q0 -110 -81.5 -192.5t-193.5 -82.5q-109 0 -192 80t-83 194q-3 108 78.5 192t195.5 84zM345 116q57 0 97.5 41t40.5 98q0 58 -40.5 98t-98.5 40q-57 0 -97.5 -40.5t-40.5 -97.5q0 -58 40.5 -98.5t98.5 -40.5zM528 743v-115h-321v115
h321z" />
    <glyph glyph-name="t_y" horiz-adv-x="928" 
d="M724 515h163q-152 -381 -205 -508q-126 -300 -291 -300v168q44 0 82 39.5t38 92.5l-152 390h-50v-164q0 -37 4.5 -58t18.5 -30t25 -11t39 -2l53 -139q-87 -15 -145 -8.5t-92.5 38t-49 70.5t-14.5 89v215h-76v118h76v192h161v-192h156l131 -303z" />
    <glyph glyph-name="f_f" horiz-adv-x="771" 
d="M725 613q-5 1 -14.5 2t-32.5 0t-40.5 -5.5t-32 -18.5t-14.5 -36v-40h120v-121h-1h-119v-394h-156v394h-152v-394h-156v394h-91v121h91v40q0 74 43.5 119t114 51t158.5 -21q-53 -41 -65 -102q-95 8 -95 -47v-40h152v40q0 111 83 151t207 -3v-90z" />
    <glyph glyph-name="y_t" horiz-adv-x="932" 
d="M872 394h-141v-164q0 -29 5.5 -49t12 -30t22 -15t25.5 -6t33 -1l43 -139q-70 -16 -121 -11t-86 20.5t-56 45t-30 62.5t-9 72v215h-1q-125 -314 -157 -390q-126 -300 -291 -300v168q43 0 81.5 39.5t38.5 92.5l-199 511h153l131 -306l128 306h116v192h161v-192h141v-121z
" />
    <glyph glyph-name="f_t" horiz-adv-x="857" 
d="M783 394h-140v-163q0 -29 5.5 -48.5t12 -29.5t22 -15t25 -6t32.5 -1v-139q-135 -24 -196.5 30.5t-61.5 157.5v214h-170v-394h-156v394h-91v121h91v40q0 111 83 151t207 -3v-96q-5 1 -14.5 2.5t-32.5 1.5t-40.5 -4t-32 -17t-14.5 -35v-40h170v186h161v-186h140v-121z" />
    <glyph glyph-name="f_j" horiz-adv-x="685" 
d="M338 515l252 -1v-527q0 -75 -24 -131q-26 -58 -65 -97q-42 -41 -97 -65q-30 -12 -60 -18v157q95 38 95 154v407h-100v-394h-1h-155v394h-91v121h91v40q0 69 26 112.5t71 58.5t100 11.5t119 -24.5l-9 -112q-6 1 -16.5 3t-36.5 3t-46 -2t-36.5 -15.5t-16.5 -34.5v-40z" />
    <glyph glyph-name="f_y" horiz-adv-x="938" 
d="M713 515h162q-151 -382 -204 -508q-126 -301 -291 -301v169q43 0 81.5 39.5t38.5 92.5l-151 387h-47v-394h-156v394h-91v121h91v40q0 112 83 151.5t207 -3.5v-110q-5 2 -14.5 4t-32.5 4.5t-40.5 0.5t-32 -13.5t-14.5 -33.5v-40h152l131 -304z" />
    <glyph glyph-name="hyphen_greater" horiz-adv-x="953" 
d="M610 657l274 -274l-274 -274l-110 111l90 91h-484v144h485l-91 92z" />
    <glyph glyph-name="less_hyphen" horiz-adv-x="926" 
d="M380 109l-274 274l274 274l110 -111l-90 -91h484v-144h-485l91 -92z" />
    <glyph glyph-name="agrave.alt1" horiz-adv-x="654" 
d="M313 530q95 0 180 -67.5t85 -165.5v-297h-155v32q-43 -21 -87.5 -35t-93.5 -16.5t-88.5 10.5t-68.5 51t-38 99q-15 112 91 160t285 0q0 30 -29 56t-84 26q-43 0 -89 -11t-71 -22l-25 -11l-72 120q44 30 123 50.5t137 20.5zM201 166q7 -52 61 -57t106 28t55 75
q-118 30 -174 18.5t-48 -64.5zM406 750l57 -117h-280l-56 117h279z" />
    <glyph glyph-name="aacute.alt1" horiz-adv-x="668" 
d="M532 744l-57 -116h-280l56 116h281zM313 530q95 0 180 -67.5t85 -165.5v-297h-155v32q-43 -21 -87.5 -35t-93.5 -16.5t-88.5 10.5t-68.5 51t-38 99q-15 112 91 160t285 0q0 30 -29 56t-84 26q-43 0 -89 -11t-71 -22l-25 -11l-72 120q44 30 123 50.5t137 20.5zM201 166
q7 -52 61 -57t106 28t55 75q-118 30 -174 18.5t-48 -64.5z" />
    <glyph glyph-name="acircumflex.alt1" horiz-adv-x="638" 
d="M497 704l-51 -74l-132 90l-131 -90l-51 74l182 125v0v0zM313 530q95 0 180 -67.5t85 -165.5v-297h-155v32q-43 -21 -87.5 -35t-93.5 -16.5t-88.5 10.5t-68.5 51t-38 99q-15 112 91 160t285 0q0 30 -29 56t-84 26q-43 0 -89 -11t-71 -22l-25 -11l-72 120q44 30 123 50.5
t137 20.5zM201 166q7 -52 61 -57t106 28t55 75q-118 30 -174 18.5t-48 -64.5z" />
    <glyph glyph-name="atilde.alt2" horiz-adv-x="636" 
d="M529 684q-8 -6 -22.5 -15.5t-47 -22t-61.5 -12.5q-27 0 -83.5 23.5t-76.5 23.5q-18 0 -39 -10.5t-30 -18.5l-62 79q7 6 22 15.5t47.5 21.5t61.5 12q27 0 84 -23t76 -23q31 0 70 29zM313 530q95 0 180 -67.5t85 -165.5v-297h-155v32q-43 -21 -87.5 -35t-93.5 -16.5
t-88.5 10.5t-68.5 51t-38 99q-15 112 91 160t285 0q0 30 -29 56t-84 26q-43 0 -89 -11t-71 -22l-25 -11l-72 120q44 30 123 50.5t137 20.5zM201 166q7 -52 61 -57t106 28t55 75q-118 30 -174 18.5t-48 -64.5z" />
    <glyph glyph-name="adieresis.alt1" horiz-adv-x="634" 
d="M220 745q28 0 47.5 -19.5t19.5 -47.5t-19.5 -47.5t-47.5 -19.5t-47 19.5t-19 47.5t19 47.5t47 19.5zM433 745q28 0 47.5 -19.5t19.5 -47.5t-19.5 -47.5t-47.5 -19.5t-47.5 19.5t-19.5 47.5t19.5 47.5t47.5 19.5zM313 530q95 0 180 -67.5t85 -165.5v-297h-155v32
q-43 -21 -87.5 -35t-93.5 -16.5t-88.5 10.5t-68.5 51t-38 99q-15 112 91 160t285 0q0 30 -29 56t-84 26q-43 0 -89 -11t-71 -22l-25 -11l-72 120q44 30 123 50.5t137 20.5zM201 166q7 -52 61 -57t106 28t55 75q-118 30 -174 18.5t-48 -64.5z" />
    <glyph glyph-name="tt" horiz-adv-x="847" 
d="M763 402h-140v-165q0 -29 5.5 -49t12 -30t22 -15t25 -6t32.5 -1l43 -139q-87 -15 -145 -8t-92.5 38t-49 70t-14.5 89v216h-150v-165q0 -36 6.5 -58t23 -30.5t28.5 -10t40 -2.5l43 -139q-87 -15 -145.5 -8t-93 38t-49 70t-14.5 89v216h-76v118h76v187h161v-187h150v187
h161v-187h140v-118z" />
    <glyph glyph-name="macron" horiz-adv-x="0" 
 />
    </font>
</defs>
</svg>
